<?xml version="1.0" encoding="UTF-8" standalone="no"?>
<!-- Created with Inkscape (http://www.inkscape.org/) -->

<svg
   xmlns:dc="http://purl.org/dc/elements/1.1/"
   xmlns:cc="http://creativecommons.org/ns#"
   xmlns:rdf="http://www.w3.org/1999/02/22-rdf-syntax-ns#"
   xmlns:svg="http://www.w3.org/2000/svg"
   xmlns="http://www.w3.org/2000/svg"
   xmlns:sodipodi="http://sodipodi.sourceforge.net/DTD/sodipodi-0.dtd"
   xmlns:inkscape="http://www.inkscape.org/namespaces/inkscape"
   width="64"
   height="64"
   viewBox="0 0 63.999999 63.999999"
   id="svg4239"
   version="1.1"
   inkscape:version="0.91 r13725"
   sodipodi:docname="logo.svg">
  <defs
     id="defs4241" />
  <sodipodi:namedview
     id="base"
     pagecolor="#ffffff"
     bordercolor="#666666"
     borderopacity="1.0"
     inkscape:pageopacity="0.0"
     inkscape:pageshadow="2"
     inkscape:zoom="3.959798"
     inkscape:cx="-24.913394"
     inkscape:cy="17.3751"
     inkscape:document-units="px"
     inkscape:current-layer="layer1"
     showgrid="false"
     fit-margin-top="0"
     fit-margin-left="0"
     fit-margin-right="0"
     fit-margin-bottom="0"
     units="px"
     inkscape:window-width="1600"
     inkscape:window-height="845"
     inkscape:window-x="0"
     inkscape:window-y="27"
     inkscape:window-maximized="1" />
  <metadata
     id="metadata4244">
    <rdf:RDF>
      <cc:Work
         rdf:about="">
        <dc:format>image/svg+xml</dc:format>
        <dc:type
           rdf:resource="http://purl.org/dc/dcmitype/StillImage" />
        <dc:title></dc:title>
      </cc:Work>
    </rdf:RDF>
  </metadata>
  <g
     inkscape:label="Layer 1"
     inkscape:groupmode="layer"
     id="layer1"
     transform="translate(-192.11307,-468.90615)">
    <g
       id="g4"
       transform="matrix(0.68729284,0,0,0.68729284,189.59825,465.87037)"
       style="fill:#4cb944;fill-opacity:1">
      <path
         d="M 74.488,72.223 C 89.962,56.755 93.59,5.872 93.59,5.872 c 0,0 -10.505,5.477 -27.287,6.917 C 50.478,14.148 35.822,16.38 27.234,24.968 13.98,38.225 10.663,57.093 18.207,70.427 26.511,57.397 60.655,38.805 60.655,38.805 36.148,56.331 23.661,69.922 6.847,93.874 l 8.245,2.207 c 0,0 6.138,-11.085 11.474,-16.44 13.392,9.502 33.82,6.689 47.922,-7.418 z"
         id="path6"
         inkscape:connector-curvature="0"
         style="fill:#4cb944;fill-opacity:1" />
    </g>
  </g>
</svg>
